<svg xmlns="http://www.w3.org/2000/svg" viewBox="0 0 35.01 17"><defs><style>.cls-1{fill:#005baa;}.cls-2{fill:#90d7ec;}.cls-3{fill:#0083ca;}.cls-4{fill:#abd693;}.cls-5{fill:#79c47a;}.cls-6{fill:#00ae4d;}</style></defs><title>pavi</title><g id="Layer_2" data-name="Layer 2"><path class="cls-1" d="M0,8.51S16.6,12.56,20.41,17A14.4,14.4,0,0,1,24,13C16.75,9.58,6.16,8.51,6.16,8.51Z"/><path class="cls-2" d="M33.54,8.51A23,23,0,0,0,24,13c.45.22.9.44,1.33.67A16.76,16.76,0,0,1,35,8.51Z"/><path class="cls-3" d="M6.16,8.51S16.75,9.58,24,13a23,23,0,0,1,9.52-4.44Z"/><path class="cls-4" d="M13.76,2.81A10.35,10.35,0,0,1,11.47,0S6.49,6.84,0,8H6.17C9.82,7.31,12.52,4.41,13.76,2.81Z"/><path class="cls-5" d="M22.08,8s-5.56-3.27-7.57-6.2c0,0-.26.42-.75,1.05A56.11,56.11,0,0,0,20.41,8Z"/><path class="cls-6" d="M6.17,8H20.41a56.11,56.11,0,0,1-6.65-5.15C12.52,4.41,9.82,7.31,6.17,8Z"/></g></svg>