<svg xmlns="http://www.w3.org/2000/svg" viewBox="0 0 100.42 24.44"><defs><style>.cls-1{fill:#b5b3b5;}.cls-2{fill:#d5d4d5;}.cls-3{fill:#e4e3e3;}.cls-4{fill:#c0bebf;}.cls-5{fill:#cac8c9;}.cls-6{fill:#fff;}</style></defs><title>logo_mono</title><g id="Layer_2" data-name="Layer 2"><path class="cls-1" d="M0,12.22H8.87s15.21,1.54,25.65,6.4a20.6,20.6,0,0,0-5.17,5.82C23.87,18.05,0,12.22,0,12.22"/><path class="cls-1" d="M34.52,18.62a33.33,33.33,0,0,1,13.69-6.4h2.13a24.23,24.23,0,0,0-13.9,7.35c-.61-.33-1.25-.64-1.92-.95"/><path class="cls-2" d="M34.52,18.62c-10.44-4.86-25.65-6.4-25.65-6.4H48.21a33.33,33.33,0,0,0-13.69,6.4h0"/><path class="cls-3" d="M8.87,12.22s15.21,1.54,25.65,6.4c-10.44-4.86-25.65-6.4-25.65-6.4"/><path class="cls-3" d="M34.52,18.62a33.33,33.33,0,0,1,13.69-6.4,33.33,33.33,0,0,0-13.69,6.4h0"/><path class="cls-4" d="M0,11.45C9.33,9.84,16.49,0,16.49,0a15.35,15.35,0,0,0,3.29,4C18,6.34,14.13,10.51,8.87,11.45H0"/><path class="cls-5" d="M29.35,11.45A79.44,79.44,0,0,1,19.78,4c.7-.9,1.08-1.51,1.08-1.51,2.89,4.21,10.88,8.92,10.88,8.92H29.35"/><path class="cls-6" d="M8.87,11.45C14.13,10.51,18,6.34,19.78,4a79.44,79.44,0,0,0,9.57,7.41H8.87"/><path class="cls-6" d="M43.3,10.66V8.25H38.11V7.47h2.62V6.26h-3V5.47h5.55V3.36H38.11V2.57H44a.34.34,0,0,1,.35.35V5.47h.43v.79h-3V7.47H44.1a.35.35,0,0,1,.31.34v2.85H43.3"/><path class="cls-6" d="M47.73,10.66a.34.34,0,0,1-.34-.33V7.42H48.5v.81H52V6.57H46.63a.36.36,0,0,1-.35-.38V4.14h3.16V3.36H46.28v-.8h3.95a.36.36,0,0,1,.33.36v2H47.39v.85H52V2.41h1.13v8.25H47.73m.77-.78H52V9H48.5v.85"/><path class="cls-6" d="M65.45,5.64a1.93,1.93,0,0,0,2-1.79,2.06,2.06,0,0,0-4.09,0,1.93,1.93,0,0,0,2.05,1.79Zm0-.77a1,1,0,0,1-1-1,1,1,0,1,1,1.92,0,1,1,0,0,1-1,1Z"/><path class="cls-6" d="M58.32,6.72a2.31,2.31,0,0,0-2.45,2.12,2.48,2.48,0,0,0,4.9,0,2.31,2.31,0,0,0-2.45-2.12Zm0,.81A1.32,1.32,0,1,1,57,8.85a1.33,1.33,0,0,1,1.33-1.32Z"/><path class="cls-6" d="M61.52,2.92V5.64h.4v.79H54.68V5.64h2.76V4.25h1.11V5.64H60.4V3.36H55V2.57h6.15a.35.35,0,0,1,.35.35Z"/><path class="cls-6" d="M65.22,10.67H70V2.42H68.9V5.88H63.17v.8h1.72V7.8H66V6.68h2.9v.67H67.17v.8H68.9V9.87H66V8.3H64.89v2a.33.33,0,0,0,.33.34Z"/><path class="cls-6" d="M96.58,13.74h-.43V15H95.7V12.23h.74c.57,0,1.12.08,1.12.73a.6.6,0,0,1-.52.63h0c.12,0,.13.14.21.28L97.77,15h-.48l-.55-1.1a.17.17,0,0,0-.16-.11Zm-.43-.34h.35c.39,0,.62-.17.62-.43s-.2-.4-.58-.4h-.39v.83Z"/><path class="cls-6" d="M61.36,13.74h-.43V15h-.45V12.23h.74c.57,0,1.12.08,1.12.73a.6.6,0,0,1-.52.63h0c.12,0,.13.14.21.28L62.55,15h-.48l-.55-1.1a.17.17,0,0,0-.16-.11Zm-.43-.34h.35c.39,0,.62-.17.62-.43s-.19-.4-.57-.4h-.4v.83Z"/><path class="cls-6" d="M71.37,14.41V12.23h.45V15h-.6L70,12.76h0V15h-.46V12.23h.41a.3.3,0,0,1,.3.16l1.17,2Z"/><path class="cls-6" d="M83.54,14.41V12.23H84V15h-.6l-1.27-2.19h0V15h-.46V12.23h.42a.3.3,0,0,1,.29.16l1.17,2Z"/><path class="cls-6" d="M90.65,12.23h.8c.58,0,1.08.17,1.08.79s-.5.8-1,.8h-.4V15h-.46V12.23Zm.46,1.27h.4a.52.52,0,0,0,.58-.48c0-.35-.38-.47-.63-.47h-.35v.95Z"/><polygon class="cls-6" points="98.22 12.23 98.68 12.23 98.68 13.43 99.87 12.23 100.42 12.23 99.21 13.52 100.41 14.95 99.88 14.95 98.68 13.62 98.68 14.95 98.22 14.95 98.22 12.23 98.22 12.23"/><polygon class="cls-6" points="54.85 12.23 55.31 12.23 55.31 13.43 56.5 12.23 57.05 12.23 55.83 13.52 57.04 14.95 56.51 14.95 55.31 13.62 55.31 14.95 54.85 14.95 54.85 12.23 54.85 12.23"/><path class="cls-6" d="M87.93,14.63v-2.4h-.46v2.51a.22.22,0,0,0,.19.21h1.42v-.32Z"/><polygon class="cls-6" points="76.96 12.23 74.77 12.23 74.77 12.55 75.63 12.55 75.63 14.95 76.08 14.95 76.08 12.55 76.96 12.55 76.96 12.23 76.96 12.23"/><polygon class="cls-6" points="77.89 14.95 77.44 14.95 77.44 12.23 77.89 12.23 77.89 14.95 77.89 14.95"/><path class="cls-6" d="M63,14.74a.2.2,0,0,0,.18.21h1.47v-.32h-1.2V13.7h1.14v-.32H63.48v-.83h1.2v-.32H63v2.51Z"/><path class="cls-6" d="M86,12.23h-.44L84.29,15h.46l.33-.74h1.3l.33.74h.46L86,12.23Zm-.73,1.66.51-1.14.51,1.14Z"/><path class="cls-6" d="M66.61,12.23h-.44L65,15h.45l.33-.74H67l.33.74h.46l-1.22-2.72Zm-.73,1.66.51-1.14.51,1.14Z"/><path class="cls-6" d="M73.88,12.23h-.44L72.22,15h.46l.33-.74h1.3l.33.74h.46l-1.22-2.72Zm-.73,1.66.51-1.14.5,1.14Z"/><path class="cls-6" d="M94,12.23h-.45L92.38,15h.45l.33-.74h1.3l.34.74h.45L94,12.23Zm-.73,1.66.5-1.14.51,1.14Z"/><path class="cls-6" d="M79.81,12.19a1.41,1.41,0,1,0,1.38,1.41,1.4,1.4,0,0,0-1.38-1.41Zm0,2.4a1,1,0,1,1,.93-1,1,1,0,0,1-.93,1Z"/><path class="cls-6" d="M58.51,12.19a1.41,1.41,0,1,0,1.38,1.41,1.4,1.4,0,0,0-1.38-1.41Zm0,2.4a1,1,0,1,1,.93-1,1,1,0,0,1-.93,1Z"/></g></svg>